# xmcd
#
# Track frame offsets: 
#        150
#        15721
#        36217
#        54807
#        68357
#        86244
#        104028
#        126149
#        141302
#        163643
#        181700
#        202997
#        215132
#        230403
#
# Disc length: 3250 seconds
#
# Revision: 2
# Processed by: cddbd v1.5.2PL0 Copyright (c) Steve Scherf et al.
# Submitted via: ExactAudioCopy v0.99pb5
#
DISCID=c00cb00e
DTITLE=¥Û­ì¦¿¨½¤l Eriko Ishihara (vocals, piano  - with accompanying mu
DTITLE=sicians) - I Wished On The Moon
DYEAR=2005
DGENRE=Jazz
TTITLE0=I Could Have Danced All Night
TTITLE1=I Wished On The Moon
TTITLE2=Misty
TTITLE3=It's Love
TTITLE4=Smile
TTITLE5=Don't Ever Go Away
TTITLE6=What A Wonderful World
TTITLE7=You're Driving Me Crazy
TTITLE8=Easy Street
TTITLE9=Tea For Two
TTITLE10=Say It Isn't So
TTITLE11=I Wanna Be Loved By You
TTITLE12=Morning Sunlight
TTITLE13=And I Love Him(Her)
EXTD=YEAR: 2005
EXTT0=
EXTT1=
EXTT2=
EXTT3=
EXTT4=
EXTT5=
EXTT6=
EXTT7=
EXTT8=
EXTT9=
EXTT10=
EXTT11=
EXTT12=
EXTT13=
PLAYORDER=
